<svg width="64" height="76" viewBox="0 0 64 76" fill="none" xmlns="http://www.w3.org/2000/svg">
<path d="M49.8375 30.8381C50.4243 30.2513 50.7539 29.4555 50.7539 28.6256C50.7539 27.7958 50.4243 26.9999 49.8375 26.4131C49.2507 25.8263 48.4548 25.4967 47.625 25.4967C46.7952 25.4967 45.9993 25.8263 45.4125 26.4131L28.875 42.9569L21.7125 35.7881C21.422 35.4976 21.077 35.2671 20.6974 35.1098C20.3178 34.9526 19.9109 34.8717 19.5 34.8717C19.0891 34.8717 18.6822 34.9526 18.3026 35.1098C17.923 35.2671 17.578 35.4976 17.2875 35.7881C16.997 36.0787 16.7665 36.4236 16.6092 36.8032C16.452 37.1828 16.3711 37.5897 16.3711 38.0006C16.3711 38.4115 16.452 38.8184 16.6092 39.198C16.7665 39.5776 16.997 39.9226 17.2875 40.2131L26.6625 49.5881C26.9528 49.8791 27.2976 50.11 27.6773 50.2676C28.0569 50.4251 28.464 50.5062 28.875 50.5062C29.286 50.5062 29.6931 50.4251 30.0727 50.2676C30.4524 50.11 30.7972 49.8791 31.0875 49.5881L49.8375 30.8381ZM34.2125 1.41935C33.6265 0.833506 32.8318 0.504395 32.0031 0.504395C31.1745 0.504395 30.3798 0.833506 29.7937 1.41935C22.025 9.1756 13.4375 13.0006 3.875 13.0006C3.0462 13.0006 2.25134 13.3298 1.66529 13.9159C1.07924 14.5019 0.75 15.2968 0.75 16.1256V34.8818C0.75 55.0006 11.0063 68.6756 31.0125 75.3381C31.6535 75.5521 32.3465 75.5521 32.9875 75.3381C52.9875 68.6756 63.25 55.0006 63.25 34.8818V16.1256C63.25 15.2968 62.9208 14.5019 62.3347 13.9159C61.7487 13.3298 60.9538 13.0006 60.125 13.0006C50.5563 13.0006 41.9687 9.1881 34.2187 1.41935H34.2125ZM7 19.1256C16.25 18.4256 24.5875 14.5881 32 7.9256C39.4062 14.5881 47.75 18.4256 57 19.1256V34.8756C57 43.8381 54.7313 50.9006 50.6188 56.4006C46.6313 61.7256 40.5625 66.0443 32 69.0693C23.4375 66.0506 17.3687 61.7256 13.3812 56.4006C9.26875 50.9069 7 43.8443 7 34.8818V19.1319V19.1256Z" fill="#FFD90F"/>
</svg>
