<svg width="56" height="56" viewBox="0 0 56 56" fill="none" xmlns="http://www.w3.org/2000/svg">
<g clip-path="url(#clip0)">
<g filter="url(#filter0_d)">
<path d="M23.3333 14V18.6667H11.6667V44.3333H37.3333V32.6667H42V46.6667C42 47.2855 41.7542 47.879 41.3166 48.3166C40.879 48.7542 40.2855 49 39.6667 49H9.33333C8.71449 49 8.121 48.7542 7.68342 48.3166C7.24583 47.879 7 47.2855 7 46.6667V16.3333C7 15.7145 7.24583 15.121 7.68342 14.6834C8.121 14.2458 8.71449 14 9.33333 14H23.3333ZM49 7V25.6667H44.3333V14.9637L26.1497 33.1497L22.8503 29.8503L41.0317 11.6667H30.3333V7H49Z" fill="#FFD90F"/>
</g>
</g>
<defs>
<filter id="filter0_d" x="-3" y="-3" width="62" height="62" filterUnits="userSpaceOnUse" color-interpolation-filters="sRGB">
<feFlood flood-opacity="0" result="BackgroundImageFix"/>
<feColorMatrix in="SourceAlpha" type="matrix" values="0 0 0 0 0 0 0 0 0 0 0 0 0 0 0 0 0 0 127 0"/>
<feOffset/>
<feGaussianBlur stdDeviation="5"/>
<feColorMatrix type="matrix" values="0 0 0 0 1 0 0 0 0 0.85098 0 0 0 0 0.0588235 0 0 0 1 0"/>
<feBlend mode="normal" in2="BackgroundImageFix" result="effect1_dropShadow"/>
<feBlend mode="normal" in="SourceGraphic" in2="effect1_dropShadow" result="shape"/>
</filter>
<clipPath id="clip0">
<rect width="56" height="56" fill="white"/>
</clipPath>
</defs>
</svg>
