<svg width="350" height="104" viewBox="0 0 350 104" fill="none" xmlns="http://www.w3.org/2000/svg">
<path d="M98.1766 5.00195C101.358 5.00195 104.543 5.00627 107.728 5.00195C107.733 8.00112 107.733 11.0003 107.728 14.0038C110.03 13.9952 112.332 14.0038 114.638 13.9951C114.646 17.2101 114.642 20.425 114.638 23.64C112.336 23.6356 110.03 23.6356 107.728 23.64C107.737 31.5543 107.728 39.4687 107.733 47.3874C104.547 47.3917 101.362 47.3874 98.1809 47.3874C98.1809 33.2589 98.1896 19.1304 98.1766 5.00195Z" fill="white"/>
<path d="M330.31 47.387C330.31 33.2456 330.31 19.0999 330.31 4.9585C333.491 4.96713 336.677 4.96282 339.862 4.96282C339.858 7.97493 339.849 10.9914 339.866 14.0035C342.164 13.9949 344.466 13.9992 346.772 13.9992C346.763 17.2141 346.772 20.4247 346.763 23.6397C344.461 23.6353 342.159 23.6397 339.862 23.6353C339.853 31.554 339.858 39.4727 339.862 47.387C336.677 47.387 333.491 47.387 330.31 47.387Z" fill="white"/>
<path d="M2.81892 27.2172C2.96547 21.0117 7.6853 15.2939 13.7413 13.9691C18.1551 12.8816 22.9569 14.1935 26.3577 17.1667C28.4267 15.4104 30.931 14.1331 33.6336 13.7619C38.181 13.024 43.0129 14.7372 46.112 18.142C48.5862 20.7916 49.9612 24.4122 49.9051 28.0371C49.9051 34.4886 49.9094 40.94 49.9008 47.3915C46.7241 47.3828 43.5431 47.3915 40.3663 47.3872C40.3577 40.8149 40.3922 34.2426 40.3491 27.6746C40.3491 25.1156 37.8836 22.9277 35.3448 23.2169C32.9482 23.3722 30.987 25.6335 31.1206 28.0285C31.1034 34.4799 31.1206 40.9357 31.1163 47.3872C27.9353 47.3872 24.7543 47.3915 21.5775 47.3828C21.5646 40.7933 21.612 34.1994 21.556 27.6056C21.5215 25.0077 18.9525 22.8457 16.3879 23.2384C14.0517 23.4758 12.2112 25.7068 12.3275 28.0457C12.3146 34.4929 12.3318 40.94 12.3232 47.3872C9.1465 47.3872 5.97409 47.3872 2.80167 47.3915C2.81461 40.6638 2.78012 33.9405 2.81892 27.2172Z" fill="white"/>
<path d="M70.0172 14.0811C73.7586 13.162 77.806 13.5676 81.2801 15.2333C85.1336 17.0587 88.2456 20.3815 89.8103 24.356C91.4827 28.5289 91.418 33.3708 89.6163 37.4962C87.7155 41.9411 83.8448 45.4969 79.237 46.9684C75.2111 48.2846 70.6896 48.0041 66.862 46.183C62.5516 44.1721 59.1637 40.2624 57.806 35.6967C56.4353 31.2562 56.9741 26.2591 59.2973 22.2328C61.5603 18.2023 65.5258 15.1729 70.0172 14.0811ZM72.5172 23.3764C68.8706 24.0669 66.1853 27.7953 66.6508 31.4763C66.9525 35.0451 70.1292 38.0659 73.7068 38.1694C77.9999 38.4888 81.8749 34.4582 81.4482 30.186C81.293 25.8318 76.7715 22.3278 72.5172 23.3764Z" fill="white"/>
<path d="M132.983 14.0943C136.944 13.1104 141.259 13.6067 144.866 15.5227C149.733 18.0342 153.22 23.0228 153.884 28.4644C155.004 35.9559 150.461 43.7796 143.427 46.5371C139.203 48.2849 134.263 48.1942 130.108 46.2912C125.897 44.4053 122.53 40.7244 121.03 36.3572C119.509 32.0462 119.81 27.131 121.866 23.0487C124.039 18.6341 128.207 15.2638 132.983 14.0943ZM135.448 23.3939C131.836 24.1189 129.203 27.8215 129.664 31.4722C129.961 35.1619 133.349 38.256 137.056 38.1783C141.392 38.2948 145.103 34.0226 144.414 29.7418C144.004 25.5386 139.552 22.341 135.448 23.3939Z" fill="white"/>
<path d="M193.052 16.3637C196.789 13.5803 201.815 13.0495 206.267 14.068C208.427 14.6117 210.517 15.3841 212.646 16.0314C211.392 18.4006 210.155 20.7783 208.892 23.1431C206.388 21.7838 203.202 20.6316 200.496 22.0902C199.09 22.8152 199.22 25.0764 200.672 25.6719C203.853 26.8284 207.565 26.7033 210.358 28.8178C213.375 31.1611 213.845 35.4592 213.03 38.9589C212.366 42.2386 209.707 44.7156 206.763 46.0533C202.31 48.0816 197.065 48.3491 192.435 46.7611C190.267 45.9325 188.194 44.8753 186.069 43.9475C187.491 41.3496 188.888 38.7345 190.323 36.1453C193.534 37.9189 197.142 40.2794 200.961 38.9287C202.59 38.4928 203.073 36.0115 201.534 35.17C198.599 33.9013 195.302 33.5949 192.435 32.1407C189.935 30.7468 188.616 27.8253 188.728 25.0246C188.78 21.6845 190.336 18.3531 193.052 16.3637Z" fill="white"/>
<path d="M225.069 19.0569C228.121 15.7125 232.547 13.667 237.073 13.5764C241.789 13.4168 246.504 15.3802 249.75 18.8023C253.284 22.4488 255.034 27.7265 254.379 32.7625C253.771 38.0617 250.496 42.9467 245.858 45.5532C241.099 48.3193 235.03 48.4402 230.086 46.0753C230.099 50.5935 230.086 55.116 230.09 59.6342C226.909 59.6342 223.733 59.6299 220.556 59.6342C220.556 49.9764 220.556 40.3187 220.552 30.6609C220.534 26.406 222.181 22.1769 225.069 19.0569ZM235.875 23.3766C232.28 24.1404 229.664 27.8559 230.146 31.5024C230.47 34.8597 233.315 37.7424 236.668 38.0919C239.728 38.4933 242.909 36.7326 244.207 33.9276C245.504 31.3341 245.078 28.0156 243.19 25.8234C241.461 23.7261 238.517 22.7293 235.875 23.3766Z" fill="white"/>
<path d="M274.703 14.0682C278.362 13.1793 282.315 13.5676 285.728 15.16C289.896 17.0717 293.207 20.757 294.69 25.0983C296.211 29.4783 295.858 34.4798 293.698 38.5881C291.703 42.4719 288.155 45.5314 284.013 46.9124C280.25 48.1811 276.034 48.0689 272.353 46.5715C268.194 44.9144 264.759 41.5311 263.026 37.397C261.099 32.9134 261.228 27.5968 263.379 23.2124C265.547 18.6813 269.81 15.2118 274.703 14.0682ZM276.448 23.549C272.832 24.5934 270.496 28.6541 271.392 32.3135C272.121 36.0247 275.991 38.7477 279.733 38.0918C283.763 37.5998 286.754 33.3837 285.965 29.4093C285.345 25.1285 280.56 22.1207 276.448 23.549Z" fill="white"/>
<path d="M166.388 17.7363C170.659 14.3962 176.315 13.7705 181.56 14.0035C181.556 17.2185 181.556 20.4377 181.565 23.6527C179.146 23.7994 176.461 23.3247 174.31 24.7056C171.815 26.3455 170.802 29.4784 170.754 32.3438C170.728 37.3582 170.754 42.3727 170.746 47.3871C167.556 47.3828 164.366 47.3914 161.177 47.3828C161.194 40.9313 161.159 34.4842 161.194 28.0328C161.172 24.0152 163.207 20.1486 166.388 17.7363Z" fill="white"/>
<path d="M308.612 17.2742C312.819 14.3139 318.155 13.7961 323.155 13.9989C323.151 17.2181 323.155 20.4374 323.151 23.6567C320.655 23.7947 317.866 23.3071 315.698 24.8477C313.34 26.5307 312.392 29.5644 312.345 32.3521C312.328 37.3622 312.34 42.3766 312.34 47.3868C309.151 47.3868 305.961 47.3868 302.776 47.3868C302.784 41.0691 302.754 34.7514 302.789 28.4338C302.793 24.0623 304.953 19.7124 308.612 17.2742Z" fill="white"/>
<path d="M5.3362 70.5864C6.9612 70.1247 8.6724 70.3318 10.3362 70.293C120.108 70.293 229.875 70.2973 339.647 70.293C341.172 70.3189 342.741 70.1592 344.233 70.5821C345.685 71.1301 346.789 72.6189 346.759 74.2027C346.793 80.9778 346.763 87.7572 346.772 94.5323C346.841 96.3404 345.547 98.1356 343.75 98.5024C342.401 98.7139 341.026 98.5801 339.668 98.606C228.724 98.606 117.776 98.606 6.83189 98.606C4.63792 98.7398 2.6724 96.7331 2.7974 94.5452C2.7974 87.7701 2.78016 80.995 2.80603 74.2242C2.77585 72.6319 3.85775 71.1301 5.3362 70.5864ZM99.5345 76.0669C99.5086 81.6941 99.5345 87.3213 99.5215 92.9529C100.586 92.9529 101.655 92.9486 102.724 92.9442C102.746 89.1597 102.685 85.3794 102.763 81.5992C105.668 85.401 108.595 89.1899 111.534 92.9658C112.19 92.9529 112.849 92.9442 113.509 92.9399C113.5 87.3084 113.5 81.6812 113.513 76.0539C112.448 76.0453 111.384 76.0453 110.319 76.0539C110.284 79.5321 110.328 83.0146 110.289 86.4971C107.621 82.993 104.853 79.5666 102.155 76.0842C101.28 76.0669 100.405 76.0626 99.5345 76.0669ZM120.832 76.0798C120.871 81.7027 120.849 87.3256 120.853 92.9529C125.039 92.9529 129.22 92.9486 133.405 92.9486C133.401 91.9086 133.397 90.8686 133.397 89.8329C130.263 89.7552 127.121 89.9235 123.991 89.7207C124 88.4822 124 87.2437 124.004 86.0095C127.013 86.0095 130.026 85.9836 133.034 86.0267C133.06 85.0213 133.073 84.0244 133.078 83.0233C130.052 83.0319 127.03 83.0319 124.004 83.0276C124 81.7373 124 80.4427 124 79.1567C127.134 79.1481 130.272 79.1567 133.405 79.1524C133.401 78.1253 133.401 77.1026 133.401 76.0798C129.211 76.0539 125.022 76.0539 120.832 76.0798ZM140.345 76.0842C140.349 77.0163 140.345 77.9484 140.345 78.8848C142.099 78.9193 143.853 78.915 145.603 78.8935C145.69 83.5756 145.621 88.2621 145.642 92.9442C146.711 92.9486 147.78 92.9486 148.849 92.9486C148.862 88.2794 148.836 83.6101 148.866 78.9409C150.625 78.8935 152.384 78.8978 154.147 78.9107C154.147 77.9656 154.147 77.0163 154.151 76.0712C149.552 76.0712 144.948 76.041 140.345 76.0842ZM171.841 76.0842C170.487 80.1363 169.142 84.1927 167.75 88.2362C166.552 84.1539 165.121 80.1406 163.862 76.0755C162.668 76.0626 161.478 76.0626 160.289 76.0798C162.323 81.6984 164.431 87.2954 166.405 92.9399C167.31 92.9442 168.215 92.9486 169.125 92.9615C170.522 89.4661 171.828 85.9404 172.909 82.3328C174.043 85.9232 175.371 89.4402 176.741 92.9442C177.642 92.9486 178.547 92.9529 179.453 92.9615C181.483 87.3343 183.466 81.6941 185.496 76.0669C184.302 76.0583 183.108 76.0669 181.914 76.0842C180.655 80.1363 179.397 84.1841 178.091 88.2146C176.746 84.1496 175.323 80.1061 173.927 76.0583C173.228 76.0626 172.534 76.0712 171.841 76.0842ZM197.487 75.972C191.953 77.1457 189.703 84.2186 192.168 88.9396C194.681 94.2647 203.052 94.8516 206.573 90.286C209.22 86.7776 209.06 81.3273 205.991 78.1253C203.832 75.8943 200.431 75.2599 197.487 75.972ZM215.289 76.0453C215.272 81.6812 215.272 87.317 215.289 92.9529C216.328 92.9486 217.366 92.9529 218.409 92.9572C218.461 91.0714 218.44 89.1813 218.444 87.2954C219.466 87.2954 220.491 87.3041 221.517 87.3213C223.112 89.2115 224.763 91.0541 226.358 92.9442C227.659 92.9615 228.957 92.9485 230.263 92.9227C228.595 90.9117 226.858 88.9612 225.099 87.0365C226.211 86.592 227.453 86.2037 228.185 85.1852C229.905 82.9154 229.638 79.243 227.384 77.4176C226.25 76.4639 224.754 76.0496 223.297 76.0669C220.625 76.041 217.957 76.054 215.289 76.0453ZM235.935 76.0712C235.922 81.6984 235.927 87.3213 235.935 92.9486C236.978 92.9486 238.022 92.9486 239.073 92.9572C239.108 90.4586 239.078 87.9557 239.103 85.4571C241.388 87.9902 243.806 90.4068 246.09 92.9399C247.431 92.9572 248.767 92.9529 250.112 92.9313C247.478 89.9408 244.668 87.1185 241.957 84.2013C244.474 81.5172 246.965 78.8071 249.453 76.0885C248.09 76.1489 246.69 75.8813 245.358 76.2007C243.215 78.4792 241.181 80.8612 239.095 83.1872C239.091 80.8138 239.095 78.4403 239.078 76.0669C238.03 76.0626 236.983 76.0626 235.935 76.0712Z" fill="white"/>
<path d="M198.09 78.8546C199.884 78.3971 201.965 78.5827 203.405 79.8385C205.888 82.1946 205.974 86.6265 203.56 89.0604C201.823 90.6312 199.065 90.7908 197.026 89.7379C193.013 87.4507 193.5 80.1664 198.09 78.8546Z" fill="white"/>
<path d="M218.431 79.0704C220.422 79.1222 222.44 78.8805 224.409 79.2085C226.754 79.8903 226.647 83.7957 224.224 84.2876C222.306 84.5379 220.358 84.3394 218.431 84.3826C218.448 82.609 218.448 80.8397 218.431 79.0704Z" fill="white"/>
</svg>
