<svg width="154" height="70" viewBox="0 0 154 70" fill="none" xmlns="http://www.w3.org/2000/svg">
<g clip-path="url(#clip0)">
<path fill-rule="evenodd" clip-rule="evenodd" d="M47.2791 24.069C47.1565 25.4247 46.5388 26.6866 45.5454 27.6106C44.5519 28.5346 43.2533 29.0551 41.9006 29.0714C41.2604 29.0803 40.6254 28.9544 40.0364 28.7016C39.4475 28.4488 38.9175 28.0749 38.4807 27.6038C38.0439 27.1327 37.7099 26.5748 37.5 25.9661C37.2902 25.3573 37.2092 24.7111 37.2624 24.069L38.3421 9.60156H32.2302L31.1368 24.069C31.0032 25.502 31.171 26.9473 31.6292 28.3108C32.0874 29.6743 32.8258 30.9254 33.7963 31.9827C34.7669 33.0399 35.9478 33.8796 37.2622 34.4472C38.5766 35.0147 39.9951 35.2973 41.4252 35.2767C44.4522 35.2379 47.3573 34.0703 49.5778 31.9998C51.7984 29.9293 53.1765 27.1033 53.4454 24.069L54.5251 9.60156H48.3589L47.2791 24.069ZM78.0968 9.63573L77.635 15.7863H69.7099L68.277 34.9691H62.165L63.5979 15.7863H55.6864L56.1414 9.63573H78.0968ZM94.7551 24.069C94.64 25.4276 94.0245 26.6939 93.0295 27.6194C92.0344 28.5448 90.7316 29.0627 89.3767 29.0714C88.7364 29.0803 88.1014 28.9544 87.5125 28.7016C86.9235 28.4488 86.3936 28.0749 85.9568 27.6038C85.52 27.1327 85.1859 26.5748 84.9761 25.9661C84.7663 25.3573 84.6853 24.7111 84.7384 24.069L85.8182 9.60156H79.7062L78.6265 24.069C78.4927 25.5032 78.6608 26.9497 79.1198 28.3141C79.5788 29.6786 80.3185 30.9303 81.2905 31.9878C82.2625 33.0453 83.4451 33.8847 84.7612 34.4514C86.0772 35.0181 87.4972 35.2993 88.9284 35.2767C91.9531 35.2346 94.8548 34.0654 97.0725 31.9953C99.2902 29.9251 100.666 27.101 100.935 24.069L102.015 9.60156H95.8485L94.7687 24.069H94.7551ZM126.313 17.4674C126.4 16.4616 126.275 15.4486 125.948 14.4941C125.621 13.5396 125.099 12.6649 124.414 11.9266C123.73 11.1883 122.899 10.6029 121.976 10.2082C121.052 9.8136 120.057 9.61856 119.053 9.63573H104.677L102.782 34.9828H108.894L109.614 25.3401H115.773L118.843 34.9828H125.58L122.035 24.1783C123.231 23.4875 124.244 22.517 124.989 21.3489C125.733 20.1808 126.188 18.8495 126.313 17.4674ZM118.368 19.1759H110.089L110.341 15.7999H118.592C118.804 15.7993 119.014 15.8429 119.209 15.9281C119.403 16.0133 119.578 16.1382 119.722 16.2949C119.867 16.4516 119.977 16.6367 120.047 16.8385C120.116 17.0404 120.143 17.2545 120.126 17.4674C120.088 17.9229 119.886 18.3485 119.556 18.6635C119.227 18.9784 118.794 19.1608 118.34 19.1759H118.368ZM127.196 34.894H146.89L147.345 28.7434H133.763L134.014 25.3674H144.649L145.111 19.2169H134.462L134.714 15.8478H148.296L148.723 9.63573H129.029L127.196 34.894Z" fill="white"/>
<path fill-rule="evenodd" clip-rule="evenodd" d="M140.323 50.6194L132.629 37.3753H126.687L125.016 59.7086H130.449L131.413 46.4712L139.134 59.7837H145.049L146.686 37.471H141.253L140.269 50.6194H140.323ZM79.5704 57.6721H81.9337L82.1714 54.4328L92.9283 42.8151H83.0406L83.4481 37.3479H101.105L100.738 42.2137L89.5057 54.2414H99.828L99.5156 58.458C102.436 58.663 105.29 58.9113 108.079 59.2029C106.015 58.3485 104.278 56.8491 103.125 54.9259C101.972 53.0027 101.464 50.7575 101.675 48.5214C101.952 45.4321 103.353 42.5546 105.609 40.4408C107.865 38.3271 110.817 37.1259 113.899 37.0678C115.362 37.0441 116.814 37.3311 118.16 37.9098C119.506 38.4886 120.715 39.3463 121.71 40.4269C122.704 41.5075 123.461 42.7868 123.931 44.1815C124.401 45.5762 124.574 47.055 124.439 48.5214C124.199 51.3219 123.035 53.961 121.13 56.0173C119.226 58.0735 116.692 59.4285 113.933 59.8658C130.911 62.0048 144.948 65.5721 154 70.0005C135.494 64.7999 107.869 61.5059 77.0034 61.5059C46.1382 61.5059 18.5055 64.7999 0 70.0005C8.87586 65.6609 22.5462 62.1483 39.0552 59.9956C37.5905 60.0186 36.1375 59.7304 34.791 59.15C33.4445 58.5695 32.2348 57.7099 31.2408 56.6271C30.2468 55.5443 29.491 54.2627 29.0225 52.866C28.5541 51.4693 28.3837 49.9889 28.5223 48.5214C28.8057 45.4364 30.2092 42.5647 32.4643 40.4554C34.7194 38.3462 37.6679 37.1474 40.7461 37.0883C42.2079 37.065 43.6581 37.3515 45.0027 37.929C46.3472 38.5064 47.556 39.3621 48.5506 40.4403C49.5452 41.5185 50.3033 42.7952 50.7757 44.1874C51.2481 45.5796 51.4242 47.0563 51.2926 48.5214C51.0672 51.1271 50.0421 53.5978 48.3593 55.5912C46.6766 57.5846 44.4194 59.002 41.9006 59.6471C45.0697 59.2735 48.3113 58.95 51.6253 58.6766L53.2144 37.4026H65.8729C66.757 37.3907 67.6337 37.5654 68.4466 37.9153C69.2595 38.2652 69.9905 38.7826 70.5925 39.4341C71.1946 40.0857 71.6543 40.857 71.942 41.6983C72.2298 42.5395 72.3392 43.4321 72.2633 44.3186C72.1531 45.5353 71.7546 46.7078 71.1012 47.7375C70.4477 48.7673 69.5584 49.6243 68.5078 50.2367L70.9458 57.7199L74.1376 57.6721L75.6452 37.4026H81.078L79.5704 57.6721ZM22.1659 46.6558H13.6771L14.3562 37.471H8.9234L7.28677 59.7769H12.7196L13.2968 52.0956H21.7313L21.188 59.7769H26.6208L28.2846 37.471H22.8518L22.1727 46.6558H22.1659ZM65.0987 57.8771L63.0207 51.255H57.5879L57.0446 58.2803C59.6795 58.1163 62.3574 57.9819 65.0784 57.8771H65.0987ZM39.4558 54.5558C41.0809 54.5327 42.6393 53.9022 43.828 52.7869C45.0166 51.6715 45.7505 50.1511 45.8869 48.5214C45.9587 47.7513 45.8682 46.9746 45.6214 46.242C45.3747 45.5095 44.9772 44.8375 44.4549 44.27C43.9326 43.7025 43.2973 43.2522 42.5903 42.9485C41.8834 42.6448 41.1208 42.4946 40.3522 42.5076C38.7377 42.543 37.1927 43.1759 36.0126 44.2853C34.8325 45.3947 34.1 46.9028 33.9551 48.5214C33.8845 49.2907 33.9756 50.0664 34.2224 50.798C34.4691 51.5296 34.866 52.2008 35.3874 52.768C35.9087 53.3351 36.5428 53.7856 37.2484 54.09C37.954 54.3945 38.7153 54.5462 39.483 54.5353L39.4558 54.5558ZM65.2617 45.822C65.662 45.81 66.0439 45.65 66.3345 45.3727C66.6251 45.0954 66.804 44.7202 66.8372 44.3186C66.8523 44.1301 66.8283 43.9405 66.7668 43.7619C66.7053 43.5832 66.6076 43.4193 66.48 43.2806C66.3523 43.1419 66.1975 43.0313 66.0252 42.9559C65.8529 42.8805 65.6669 42.8418 65.479 42.8424H58.2126L57.9885 45.822H65.2617ZM112.595 54.5558C114.216 54.533 115.771 53.9051 116.958 52.7939C118.145 51.6827 118.88 50.1674 119.019 48.5419C119.097 47.7713 119.01 46.9929 118.766 46.2584C118.522 45.5239 118.125 44.85 117.602 44.2814C117.08 43.7128 116.443 43.2624 115.734 42.9602C115.025 42.6579 114.261 42.5106 113.492 42.5281C111.872 42.5554 110.319 43.1848 109.133 44.2951C107.947 45.4055 107.211 46.9182 107.067 48.5419C106.997 49.3124 107.088 50.0892 107.336 50.8218C107.583 51.5544 107.981 52.2262 108.504 52.7936C109.027 53.361 109.663 53.8111 110.37 54.1148C111.077 54.4184 111.84 54.5687 112.609 54.5558H112.595Z" fill="white"/>
<path fill-rule="evenodd" clip-rule="evenodd" d="M16.9776 12.8273H27.6124L27.1642 19.135H16.5294L15.3478 34.9966H9.07288L10.954 9.75203C11.1738 7.11014 12.3658 4.64601 14.2965 2.84219C16.2271 1.03837 18.7574 0.0248071 21.3918 0H150.971L150.822 1.31895C150.543 3.70399 148.893 6.29405 146.265 6.29405H21.3918C20.3312 6.32131 19.3175 6.73919 18.5427 7.4685C17.7679 8.1978 17.2859 9.18783 17.1881 10.2509L16.9776 12.8273Z" fill="white"/>
</g>
<defs>
<clipPath id="clip0">
<rect width="154" height="70" fill="white"/>
</clipPath>
</defs>
</svg>
